# Blender v2.76 (sub 0) OBJ File: ''
# www.blender.org
mtllib ourWorld.mtl
o Cube
v -2.000000 -2.000000 2.000000
v -2.000000 2.000000 2.000000
v -2.000000 -2.000000 -2.000000
v -2.000000 2.000000 -2.000000
v 2.000000 -2.000000 2.000000
v 2.000000 2.000000 2.000000
v 2.000000 -2.000000 -2.000000
v 2.000000 2.000000 -2.000000
vt 0.999900 0.999900
vt 0.000100 0.999900
vt 0.000100 0.000100
vt 0.999900 0.000100
vn 0.000000 0.000000 1.000000
vn 0.000000 1.000000 0.000000
vn 0.000000 -1.000000 0.000000
vn 0.000000 0.000000 -1.000000
vn -1.000000 0.000000 0.000000
vn 1.000000 0.000000 0.000000
usemtl Material
s off
f 6/1/1 2/2/1 1/3/1 5/4/1
usemtl Material.001
f 6/1/2 8/2/2 4/3/2 2/4/2
usemtl Material.002
f 1/1/3 3/2/3 7/3/3 5/4/3
usemtl Material.003
f 4/1/4 8/2/4 7/3/4 3/4/4
usemtl Material.004
f 2/1/5 4/2/5 3/3/5 1/4/5
usemtl Material.005
f 8/1/6 6/2/6 5/3/6 7/4/6
