# Blender v2.76 (sub 0) OBJ File: ''
# www.blender.org
mtllib cube.mtl
o Cube
v -5.000000 5.000000 5.000000
v -5.000000 5.000000 -5.000000
v -5.000000 -5.000000 -5.000000
v -5.000000 -5.000000 5.000000
v 5.000000 5.000000 -5.000000
v 5.000000 -5.000000 -5.000000
v 5.000000 5.000000 5.000000
v 5.000000 -5.000000 5.000000
vt 0.750753 0.666398
vt 0.500753 0.666398
vt 0.500753 0.333114
vt 0.750753 0.333114
vt 0.500375 0.667965
vt 0.250375 0.667965
vt 0.250375 0.334681
vt 0.500375 0.334681
vt 0.000375 0.667965
vt 0.000375 0.334681
vt 1.001329 0.665489
vt 0.751365 0.665489
vt 0.751365 0.332156
vt 1.001329 0.332156
vt 0.500310 0.000762
vt 0.500310 0.334095
vt 0.250347 0.334095
vt 0.250347 0.000762
vt 0.250304 1.000446
vt 0.250304 0.667162
vt 0.500304 0.667162
vt 0.500304 1.000446
vn -1.000000 0.000000 0.000000
vn 0.000000 0.000000 -1.000000
vn 1.000000 0.000000 0.000000
vn 0.000000 0.000000 1.000000
vn 0.000000 -1.000000 0.000000
vn 0.000000 1.000000 0.000000
usemtl Material
s 1
f 1/1/1 2/2/1 3/3/1 4/4/1
f 2/5/2 5/6/2 6/7/2 3/8/2
f 5/6/3 7/9/3 8/10/3 6/7/3
f 7/11/4 1/12/4 4/13/4 8/14/4
f 4/15/5 3/16/5 6/17/5 8/18/5
f 7/19/6 5/20/6 2/21/6 1/22/6
